<svg width="60" height="60" viewBox="0 0 60 60" fill="none" xmlns="http://www.w3.org/2000/svg">
<path d="M30 0.317383C46.3932 0.317383 59.6826 13.6068 59.6826 30C59.6826 46.3932 46.3932 59.6826 30 59.6826C13.6068 59.6826 0.317383 46.3932 0.317383 30C0.317383 13.6068 13.6068 0.317383 30 0.317383Z" fill="#5E4B9D" stroke="#5E4B9D" stroke-width="0.634921"/>
<path d="M27.6309 32.8351C28.1022 32.7644 29.4205 32.7454 29.0702 33.5446C28.8943 33.9442 27.9517 33.8817 27.5409 33.8355C26.8487 33.758 26.8585 32.9507 27.6309 32.8351Z" fill="white"/>
<path d="M24.0841 44.7375C23.8041 44.4861 23.9293 43.9737 24.3275 43.888C24.5132 43.8486 25.536 43.8418 25.702 43.888C26.1368 44.0104 26.1101 44.7335 25.5459 44.8626C25.2547 44.9292 24.3008 44.9333 24.0841 44.7389V44.7375Z" fill="white"/>
<path d="M20.2741 18.3707H29.2967C29.7047 18.3707 29.7047 19.3208 29.2967 19.3208H19.8535C19.9126 22.1479 23.1499 23.4853 25.325 24.7154C25.5712 24.7603 28.8268 22.8275 29.1222 22.3735H24.3823C24.3654 22.3735 24.1023 22.2362 24.0855 22.2186C23.7844 21.925 23.9504 21.4153 24.3865 21.3596L30.2337 21.3446C30.6403 20.6378 30.9456 20.1309 30.8794 19.2841C30.8288 18.6194 30.5657 18.5678 30.3026 18.0785C29.4148 16.4312 31.5759 15.1304 32.7746 16.3007C33.0194 16.5399 33.3837 17.089 33.5371 17.3962C35.3816 21.085 31.8488 24.7779 28.6734 26.3695L28.6312 26.5082C29.8369 27.1715 31.2762 28.0468 32.2132 29.0512C33.0264 29.9211 33.8311 31.3999 32.3539 32.108C30.8921 32.8094 30.3814 31.51 29.5443 30.7475C28.347 29.6588 26.8303 28.933 25.4192 28.146L22.4506 29.8327H27.6815C28.0347 29.8327 28.3583 30.7312 27.607 30.8467L21.0958 30.8644C20.7933 30.95 19.7606 32.4016 19.8521 32.8175H25.5036C25.8765 32.8175 26.1705 33.296 25.9229 33.6303C25.8849 33.682 25.6837 33.8356 25.6443 33.8356H19.9928C20.9706 35.9178 23.3398 36.9726 25.3109 38.03C25.5304 38.0613 27.3073 37.0704 27.6914 36.8978C29.5246 36.0769 32.1091 35.3089 34.1224 35.8213C35.4139 36.1502 35.7628 37.8683 34.574 38.5261C33.7467 38.9842 33.4147 38.6362 32.5945 38.6471C31.2692 38.6634 29.8974 39.2451 28.7001 39.7371C28.6734 39.8581 28.7367 39.8717 28.8155 39.9288C29.0645 40.1109 29.4838 40.2985 29.775 40.4942C30.878 41.2336 32.2441 42.2897 32.942 43.4042C34.2406 45.4797 31.2818 46.8647 30.1957 44.8885C29.2165 44.796 27.9545 45.0312 27.0118 44.8586C26.6573 44.7933 26.4223 44.5038 26.5771 44.1613C26.6024 44.1042 26.8135 43.8718 26.8402 43.8718H29.1926C28.0755 42.8823 26.7276 42.1361 25.3658 41.5027C24.0039 42.1864 22.317 43.0291 21.2196 44.0716C20.6948 44.5704 20.0744 45.7312 19.3217 45.8317C18.749 45.9079 18.1947 45.7665 17.8205 45.3275C16.4839 43.7617 19.3048 41.6522 20.4655 40.8313C20.9959 40.4562 21.5671 40.1367 22.1017 39.767C19.8394 38.4908 17.1972 36.5295 16.7822 33.8505C16.2532 30.4321 19.4075 27.9761 22.0989 26.4076C18.8813 24.7657 15.2458 21.0062 17.2648 17.2616C17.4744 16.8715 17.9457 16.1974 18.3551 16.0084C19.5904 15.4362 20.9354 16.5331 20.5583 17.7985C20.4922 18.0187 20.3234 18.16 20.2741 18.3721V18.3707ZM31.9796 31.1702C32.2765 30.9391 32.1232 30.6238 31.9585 30.3832C29.3051 26.5122 19.5594 24.661 18.8306 20.1377C18.7181 19.4377 18.7673 18.7907 19.1134 18.1655C19.2809 17.8624 19.9505 17.1977 19.3442 16.9286C18.773 16.6744 18.4128 17.3105 18.1807 17.7387C16.8314 20.2287 18.7195 22.8017 20.7018 24.2981C24.0883 26.8534 28.6242 27.866 31.3676 31.2218C31.5308 31.2939 31.8361 31.2789 31.9782 31.1688L31.9796 31.1702ZM32.0556 36.7034C30.3701 36.8285 28.786 37.4958 27.2932 38.2081C24.8579 39.3702 20.3951 41.5163 18.8813 43.6475C18.6703 43.9438 18.3987 44.2333 18.5535 44.6194C18.7434 44.845 19.0586 44.8912 19.3174 44.7471C19.4891 44.652 20.2136 43.6163 20.481 43.3621C21.4419 42.446 22.9754 41.5897 24.1572 40.9455C26.9443 39.4273 29.9523 37.6386 33.2304 37.6984C33.5385 37.7038 34.0661 37.9389 34.2152 37.5013C34.5501 36.5159 32.6381 36.6599 32.0556 36.7034Z" fill="white"/>
<path d="M21.4855 22.2199C21.2421 21.963 21.3392 21.4533 21.7275 21.3704C22.1158 21.2875 23.3131 21.2372 23.42 21.7455C23.6043 22.6208 21.7135 22.4618 21.4841 22.2212L21.4855 22.2199Z" fill="white"/>
<path d="M38.9369 19.8834C44.2423 19.4295 47.7385 24.4544 46.3949 29.1898C45.4452 32.5347 41.8661 35.0316 38.2348 34.2215C37.8184 34.1291 36.9123 33.6656 36.6591 33.652C36.064 33.6207 34.6444 34.3778 34.1027 34.2106C33.9043 34.1495 33.7524 33.9334 33.7524 33.7336L34.2983 31.7084C30.8879 27.692 33.35 20.3605 38.9369 19.8834ZM38.8651 20.8987C34.7119 21.3513 32.8281 26.2757 34.3039 29.743C34.5867 30.4076 35.0411 30.9146 35.4097 31.5235L35.0454 32.8786L35.1227 33.0173C35.549 32.9044 36.3186 32.5959 36.7365 32.6095C37.0657 32.619 37.7663 33.0213 38.1631 33.1355C40.7504 33.8871 43.5881 32.5769 44.8149 30.307C47.1321 26.0215 44.2536 20.3102 38.8651 20.8974V20.8987Z" fill="white"/>
<path d="M39.4982 21.8488C40.4634 21.7496 41.5073 22.4632 41.6199 23.4228C41.769 24.6936 41.2892 26.3572 41.3075 27.6661C40.559 29.4208 38.3333 29.217 38.0393 27.2203C37.9042 26.3056 37.7832 24.888 37.7593 23.9651C37.7311 22.9035 38.3446 21.9671 39.4982 21.8488Z" fill="white"/>
<path d="M39.7036 32.3526C40.5622 32.3526 41.2583 31.6802 41.2583 30.8507C41.2583 30.0212 40.5622 29.3488 39.7036 29.3488C38.845 29.3488 38.149 30.0212 38.149 30.8507C38.149 31.6802 38.845 32.3526 39.7036 32.3526Z" fill="white"/>
</svg>
