<svg width="72" height="72" viewBox="0 0 72 72" fill="none" xmlns="http://www.w3.org/2000/svg">
<path d="M36 72C55.8823 72 72 55.8823 72 36C72 16.1177 55.8823 0 36 0C16.1177 0 0 16.1177 0 36C0 55.8823 16.1177 72 36 72Z" fill="#5E4B9D"/>
<path d="M36.598 40.0357C37.4944 40.0357 38.2205 39.3149 38.2205 38.4249V29.7028C38.2205 28.8128 37.4944 28.092 36.598 28.092C35.7015 28.092 34.9754 28.8128 34.9754 29.7028V38.429C34.9754 39.3189 35.7015 40.0397 36.598 40.0397V40.0357Z" fill="white"/>
<path d="M38.257 44.1996C38.257 46.3902 34.947 46.3902 34.947 44.1996C34.947 42.009 38.257 42.005 38.257 44.1996Z" fill="white"/>
<path d="M53.355 44.0948L40.7761 22.4667C39.9161 20.9848 38.3219 20.0747 36.602 20.0747C34.8821 20.0747 33.2879 20.9888 32.428 22.4667L19.845 44.0948C18.985 45.5767 18.985 47.4009 19.845 48.8828C20.7049 50.3646 22.2991 51.2747 24.019 51.2747H49.1769C50.9009 51.2747 52.491 50.3606 53.351 48.8828C54.2109 47.4009 54.2109 45.5767 53.351 44.0948H53.355ZM50.5439 47.272C50.2681 47.7593 49.7408 48.0613 49.1769 48.0532H24.0231C23.4592 48.0532 22.94 47.7552 22.6561 47.272C22.3762 46.7888 22.3762 46.1928 22.6561 45.7056L35.235 24.0774C35.5149 23.5942 36.0382 23.2962 36.598 23.2962C37.1578 23.2962 37.681 23.5942 37.965 24.0774L50.5439 45.7056C50.8319 46.1888 50.8319 46.7888 50.5439 47.272Z" fill="white"/>
</svg>
