<svg width="60" height="60" viewBox="0 0 60 60" fill="none" xmlns="http://www.w3.org/2000/svg">
<path d="M30 60C46.5685 60 60 46.5685 60 30C60 13.4315 46.5685 0 30 0C13.4315 0 0 13.4315 0 30C0 46.5685 13.4315 60 30 60Z" fill="#5E4B9D"/>
<path fill-rule="evenodd" clip-rule="evenodd" d="M28.7656 18.3306C33.438 16.8512 37.5924 21.5193 35.6074 25.9468C35.4865 26.2154 35.3279 26.4463 35.1874 26.652C35.0999 26.7802 35.0204 26.8986 34.9532 27.0151C35.9323 27.3208 36.7704 27.9046 37.5214 28.5371C38.166 28.015 38.8421 27.6162 39.5698 27.2507C36.3984 23.1959 40.5133 17.3982 45.5257 19.3936C48.6994 20.6572 49.6804 24.6194 47.6077 27.2446C49.7652 28.248 51.3882 30.0614 51.83 32.4687L51.8901 32.857C51.9467 33.2811 51.9911 33.8025 52.0104 34.3189C52.0326 34.9173 52.0226 35.5286 51.9547 35.9831L51.922 36.1681C51.6995 37.2443 50.7111 37.9326 49.6915 38.0227C48.0461 38.1689 46.2938 38.1124 44.5515 38.0471C42.8067 37.9817 41.0722 37.9076 39.4363 38.0113C39.3521 38.0236 39.2712 38.062 39.1746 38.13C39.0676 38.2054 38.9732 38.2923 38.8324 38.4067C38.562 38.6264 38.209 38.8649 37.6425 38.9181C35.3779 39.1296 32.9535 39.0478 30.5381 38.9547C28.1176 38.8615 25.706 38.7566 23.4408 38.9181C22.9607 38.9914 22.5815 38.7207 22.3004 38.4905C22.1444 38.3627 22.0248 38.2533 21.8963 38.1588C21.7739 38.0688 21.6816 38.023 21.6064 38.0113L11.0647 37.9921H11.0391L11.0144 37.9869C10.1614 37.7942 9.3652 37.148 9.14985 36.258C9.02728 35.7528 9.00286 34.971 9.03227 34.2098C9.06189 33.4443 9.14727 32.6683 9.25948 32.1667L9.31252 31.9477C9.86916 29.8034 11.4709 28.1563 13.4367 27.2437C10.264 23.2264 14.3277 17.4683 19.3113 19.3613C22.5641 20.5974 23.5524 24.5871 21.4685 27.2516C22.1954 27.617 22.8707 28.0161 23.516 28.5371C24.27 27.8742 25.1443 27.3132 26.1257 27.0063C23.7022 24.0781 25.1377 19.4788 28.7656 18.3306ZM27.1513 28.2072C27.0485 28.2139 26.9225 28.2454 26.7605 28.3206L26.7463 30.1612C26.812 30.2391 26.8927 30.3127 26.9877 30.3881C27.0458 30.4342 27.1077 30.48 27.1725 30.5278C27.2362 30.5747 27.3039 30.6245 27.3705 30.6761C27.6378 30.8832 27.9214 31.1478 28.038 31.5768C28.1116 31.8465 28.1875 32.3794 28.2068 32.892C28.2165 33.1495 28.2123 33.4108 28.1847 33.6373C28.1584 33.8529 28.1059 34.0776 27.992 34.229C27.9134 34.3327 27.7795 34.3985 27.6737 34.4402C27.5555 34.4867 27.4165 34.5242 27.2812 34.5536C27.1451 34.5832 27.0062 34.606 26.8843 34.6191C26.8256 34.6253 26.7665 34.6294 26.7119 34.6313L26.5642 34.6278C26.291 34.5969 26.0933 34.4424 25.9772 34.2464C25.9501 34.2006 25.9267 34.152 25.9083 34.1024C25.8855 34.1718 25.8588 34.2402 25.8207 34.3023C25.7059 34.4894 25.5124 34.6394 25.2461 34.6531C25.061 34.6625 24.7584 34.6263 24.4849 34.5484C24.3467 34.509 24.2052 34.4566 24.0844 34.3869C23.9678 34.3196 23.8441 34.221 23.7812 34.0797C23.7285 33.9608 23.705 33.7741 23.6919 33.5927C23.6779 33.3992 23.674 33.171 23.6769 32.9443C23.6825 32.4967 23.7153 32.0237 23.7582 31.815C23.9441 30.9151 24.5356 30.576 25.1533 30.2127L25.1621 29.2187C24.8782 29.3952 24.5865 29.6384 24.3169 29.9151C23.9454 30.2965 23.6279 30.7275 23.4346 31.1046C23.1117 31.7338 22.8966 32.761 22.7954 33.8301C22.7073 34.7619 22.7081 35.6992 22.7893 36.3916L22.829 36.6726L22.8635 36.8332C22.9045 36.9811 22.9643 37.0933 23.0403 37.1805C23.1368 37.2912 23.2757 37.3774 23.4841 37.4371L37.6319 37.4109C37.8221 37.3507 37.9493 37.2538 38.0377 37.1281C38.1328 36.9927 38.194 36.8114 38.2251 36.5827C38.3045 35.9963 38.3133 35.0554 38.249 34.1146C38.1924 33.2884 38.0801 32.4859 37.921 31.9355L37.8502 31.7155C37.665 31.2094 37.3368 30.6497 36.9264 30.1595C36.6067 29.7777 36.2438 29.4469 35.8708 29.2152V30.8053C37.4834 31.4126 37.666 33.7457 36.0096 34.5161C33.9502 35.475 32.1596 33.0209 33.5015 31.3891C33.6482 31.2124 33.8373 31.1048 33.9798 31.0208C34.1063 30.9463 34.2001 30.8852 34.2715 30.8096L34.276 28.3189C34.131 28.2505 34.0193 28.2197 33.9294 28.2107C33.8211 28.1999 33.7307 28.2178 33.6385 28.2569C33.5385 28.2995 33.4422 28.3626 33.3097 28.4463C33.1824 28.5267 33.0311 28.6187 32.8455 28.695L32.8464 28.6959C31.5129 29.2463 30.093 29.3698 28.7099 28.8975L28.434 28.7954C28.2162 28.708 28.0384 28.6016 27.8868 28.5065C27.7299 28.4081 27.6139 28.331 27.4934 28.2761C27.3805 28.2248 27.2738 28.1993 27.1513 28.2072ZM20.1556 28.4044C20.1278 28.4156 20.0897 28.4332 20.0425 28.4568C19.9474 28.5043 19.8298 28.5686 19.6994 28.6392C19.4523 28.7729 19.1414 28.9396 18.9276 28.9987C18.121 29.2205 17.1827 29.2486 16.3426 29.079L15.989 28.9944C15.7669 28.9316 15.4898 28.7778 15.2667 28.6523C15.1494 28.5862 15.0442 28.5266 14.9546 28.4795C14.9103 28.4561 14.8727 28.4369 14.8424 28.4236C14.8275 28.4171 14.8153 28.4129 14.8061 28.4097C14.7986 28.407 14.7942 28.4056 14.7929 28.4053C14.6862 28.3826 14.4872 28.4171 14.2023 28.5397C13.93 28.657 13.6192 28.8364 13.3103 29.0415C12.6885 29.4546 12.1083 29.9504 11.886 30.2118C10.6631 31.6516 10.3556 34.0293 10.6501 35.9063L10.6811 36.0198C10.7256 36.1316 10.8087 36.2396 10.9206 36.3331C11.0696 36.4575 11.2524 36.5404 11.4131 36.567H21.3031L21.3412 36.5286V32.5891C21.3413 32.5062 21.3692 32.3889 21.3977 32.2837C21.429 32.1682 21.4711 32.0323 21.5153 31.8979C21.6039 31.6286 21.705 31.352 21.7531 31.2242C21.8658 30.9269 22.0096 30.647 22.1572 30.3794C22.288 30.1422 22.4148 29.9205 22.5364 29.6934C22.5301 29.6862 22.5238 29.677 22.5152 29.6681C22.4609 29.6117 22.3798 29.5431 22.2756 29.4657C22.0679 29.3113 21.7882 29.1364 21.4932 28.9726C21.1987 28.809 20.8945 28.659 20.6419 28.5519C20.5154 28.4983 20.4048 28.4568 20.3165 28.4297C20.2725 28.4163 20.2366 28.4072 20.2087 28.4018C20.1922 28.3986 20.1808 28.398 20.1742 28.3974C20.1699 28.3989 20.1634 28.4013 20.1556 28.4044ZM40.8322 28.4062C40.8043 28.4115 40.7682 28.4207 40.7244 28.4341C40.6361 28.4611 40.5254 28.5027 40.399 28.5563C40.1466 28.6633 39.8429 28.8135 39.5485 28.9769C39.2536 29.1408 38.973 29.3156 38.7653 29.47C38.6611 29.5475 38.58 29.6161 38.5257 29.6725C38.5164 29.6821 38.5093 29.6919 38.5027 29.6995C38.726 30.1189 38.9836 30.5846 39.2011 31.061C39.4371 31.5779 39.6341 32.1267 39.6971 32.6773C39.7681 33.3076 39.7427 33.9926 39.713 34.661C39.6842 35.3067 39.6532 35.9379 39.6935 36.5225L39.7377 36.567H49.5544C49.7006 36.5669 49.9012 36.4949 50.0778 36.3619C50.2544 36.2288 50.3693 36.0626 50.3934 35.9089C50.844 33.0445 49.9545 30.0434 47.3045 28.7727L47.0428 28.6549C46.7807 28.545 46.6162 28.4841 46.5017 28.455C46.3935 28.4276 46.3487 28.4338 46.3196 28.442C46.2734 28.4551 46.2322 28.4808 46.1119 28.5484C46.0284 28.5953 45.9246 28.6513 45.7848 28.7099L45.6318 28.7692C44.7731 29.079 43.9579 29.2256 43.1529 29.1689C42.3685 29.1137 41.607 28.8647 40.8331 28.4053L40.8322 28.4062ZM26.1434 31.6317C26.0174 31.5964 25.833 31.6064 25.5714 31.7408L25.5705 31.7417C25.451 31.8031 25.3837 31.8784 25.3416 31.9608C25.2972 32.0478 25.274 32.1562 25.2673 32.2907C25.2606 32.4268 25.2709 32.5726 25.2806 32.7349C25.2847 32.8049 25.2875 32.8786 25.2894 32.953C25.4466 32.9592 25.587 33.0145 25.7005 33.1145C25.7971 33.1996 25.8627 33.3083 25.9047 33.4234C25.9568 33.2811 26.0462 33.1475 26.1814 33.0543C26.3177 32.9606 26.4811 32.9208 26.6606 32.9356C26.6835 32.5676 26.6214 32.1753 26.4688 31.9136C26.379 31.7599 26.2691 31.6672 26.1434 31.6317ZM35.1255 32.1615C34.835 32.1615 34.5962 32.3969 34.596 32.6904C34.596 32.984 34.8348 33.2192 35.1255 33.2192C35.4162 33.2191 35.6551 32.9839 35.6551 32.6904C35.6549 32.3969 35.4161 32.1616 35.1255 32.1615ZM43.5799 20.5046C41.5925 20.5046 39.9777 22.1073 39.9773 24.0888C39.9773 26.0706 41.5923 27.6731 43.5799 27.6731C45.5673 27.6729 47.1825 26.0705 47.1825 24.0888C47.1821 22.1074 45.5671 20.5047 43.5799 20.5046ZM17.4477 20.5072C15.4626 20.5072 13.8482 22.1096 13.8478 24.0888C13.8478 26.0684 15.4624 27.6713 17.4477 27.6713C19.433 27.6713 21.0476 26.0684 21.0476 24.0888C21.0473 22.1096 19.4328 20.5072 17.4477 20.5072ZM30.5134 19.555C28.2622 19.5552 26.4354 21.3711 26.4352 23.6132C26.4352 25.8554 28.2621 27.6711 30.5134 27.6713C32.7648 27.6713 34.5925 25.8555 34.5925 23.6132C34.5923 21.371 32.7647 19.5551 30.5134 19.555Z" fill="white"/>
</svg>
