<svg width="60" height="60" viewBox="0 0 60 60" fill="none" xmlns="http://www.w3.org/2000/svg">
<path d="M30 60C46.5685 60 60 46.5685 60 30C60 13.4315 46.5685 0 30 0C13.4315 0 0 13.4315 0 30C0 46.5685 13.4315 60 30 60Z" fill="#5E4B9D"/>
<path fill-rule="evenodd" clip-rule="evenodd" d="M12.6627 33.3717C13.6354 31.9477 15.6111 31.5521 17.0846 32.461C17.7681 32.8803 18.2397 33.5059 18.4531 34.2502L18.4926 34.4012L18.4936 34.4048L18.5221 34.554C18.6466 35.3033 18.4816 36.0609 18.0404 36.7002L18.0358 36.7065C17.912 36.8739 17.7785 37.0295 17.6388 37.1722C19.486 38.0156 20.703 39.817 20.7031 41.8223V42.3132C20.7031 42.4058 20.646 42.4894 20.5588 42.5254C20.504 42.548 20.4446 42.5466 20.3906 42.5281H10.2353C10.1054 42.5281 10 42.425 10 42.2979V41.8061C10.0003 39.8056 11.1973 38.0071 13.0515 37.1614C12.6332 36.7557 12.3381 36.2412 12.2096 35.6689V35.6671C12.0356 34.8699 12.1922 34.0535 12.6627 33.3717ZM15.0772 38.1064C13.3177 38.2165 11.8766 39.4775 11.5561 41.1003H19.1305C18.7818 39.3 17.0525 37.9817 15.0772 38.1064ZM15.3355 33.3475C14.3803 33.3475 13.6061 34.0813 13.5919 34.9784C13.5929 35.4252 13.7628 35.8391 14.0836 36.1454L14.0873 36.149C14.4126 36.4729 14.8509 36.648 15.3033 36.648C15.7632 36.648 16.217 36.4829 16.5386 36.176L16.5423 36.1724C16.8814 35.8621 17.0625 35.4469 17.0625 35.0207V34.9901C17.0624 34.0936 16.3317 33.3633 15.409 33.334C15.3855 33.3416 15.3611 33.3474 15.3355 33.3475Z" fill="white"/>
<path fill-rule="evenodd" clip-rule="evenodd" d="M27.4108 33.2441C28.366 31.9806 30.1765 31.6048 31.6002 32.38L31.7417 32.461L31.7426 32.4619C33.2168 33.3722 33.6539 35.2606 32.7022 36.6894L32.7031 36.6903C32.5928 36.8692 32.4541 37.0309 32.3051 37.1767C34.1469 38.022 35.3593 39.8205 35.3594 41.8223V42.3132C35.3594 42.4057 35.303 42.4894 35.216 42.5254C35.161 42.5481 35.101 42.5467 35.0469 42.5281H24.8915C24.7618 42.5279 24.6563 42.4249 24.6562 42.2979V41.8061C24.6565 39.8048 25.855 38.0057 27.7105 37.1605C26.7008 36.1671 26.4852 34.5967 27.318 33.3735L27.4108 33.2441ZM29.7178 38.1064C27.9583 38.2165 26.5173 39.4775 26.1967 41.1003H33.7711C33.4224 39.3 31.6931 37.9818 29.7178 38.1064ZM29.9596 33.3475C29.0045 33.3476 28.2301 34.0813 28.216 34.9784C28.2181 35.8949 28.9671 36.6498 29.9311 36.6633H29.9596C30.9136 36.6633 31.6871 35.9316 31.7031 35.036V35.0054C31.7031 34.5572 31.5331 34.1419 31.2114 33.8348C30.9252 33.5617 30.5645 33.3934 30.1654 33.3556L29.9917 33.3475H29.9596Z" fill="white"/>
<path fill-rule="evenodd" clip-rule="evenodd" d="M43.9899 31.8478C44.8198 31.6828 45.6703 31.8308 46.3824 32.2775L46.5165 32.3639C47.1273 32.7801 47.5506 33.3698 47.75 34.0523L47.7895 34.2007L47.7904 34.2052C47.9646 35.0031 47.8077 35.8185 47.3392 36.5141L47.1397 36.7649C47.0735 36.8424 47.0053 36.9167 46.9357 36.9879C48.7831 37.8312 49.9999 39.6326 50 41.638V42.1136C50 42.2062 49.9429 42.2898 49.8557 42.3258C49.8008 42.3483 49.7415 42.347 49.6875 42.3285H39.5322C39.4024 42.3284 39.2969 42.2253 39.2969 42.0983V41.6227C39.297 39.6209 40.4959 37.8213 42.352 36.9762C41.9335 36.5667 41.6359 36.0614 41.5064 35.4846V35.4828C41.3326 34.6856 41.4891 33.8691 41.9596 33.1874C42.4295 32.4912 43.143 32.0286 43.9871 31.8478H43.9899ZM44.3741 37.9068C42.5825 38.0171 41.1692 39.2525 40.8529 40.9007H48.4274C48.09 39.1592 46.4612 37.8683 44.5671 37.8987L44.3741 37.9068ZM44.6489 33.1326H44.6167C43.6615 33.1326 42.8873 33.8664 42.8732 34.7635C42.8753 35.6799 43.6235 36.4348 44.5873 36.4484H44.6167C45.5706 36.4483 46.3443 35.7166 46.3603 34.8211V34.7905C46.3602 34.3443 46.1909 33.9437 45.8676 33.6352C45.5432 33.3256 45.1044 33.1479 44.6489 33.1326Z" fill="white"/>
<path d="M30.4421 13.5422C30.5719 13.5422 30.6771 13.6455 30.6774 13.7724L30.6939 25.0569H45.1314C45.2612 25.057 45.3666 25.1601 45.3667 25.2871V29.6009C45.3667 29.728 45.2613 29.831 45.1314 29.8311H44.1664C44.0364 29.8311 43.9311 29.7281 43.9311 29.6009V26.4379H30.6949L30.7096 29.6C30.7098 29.6612 30.6856 29.7203 30.6415 29.7637C30.5974 29.8071 30.5369 29.8311 30.4743 29.8311H29.5092C29.3797 29.8311 29.2745 29.7285 29.2739 29.6018L29.2592 26.4379H16.0368V29.6009C16.0368 29.7281 15.9314 29.8311 15.8015 29.8311H14.8364C14.7065 29.831 14.6011 29.728 14.6011 29.6009V25.2871C14.6012 25.1601 14.7066 25.057 14.8364 25.0569H29.2583L29.2417 13.7724C29.2418 13.7115 29.2666 13.6528 29.3107 13.6097C29.3548 13.5666 29.4147 13.5423 29.477 13.5422H30.4421Z" fill="white"/>
</svg>
