<svg width="60" height="60" viewBox="0 0 60 60" fill="none" xmlns="http://www.w3.org/2000/svg">
<path d="M30 60C46.5685 60 60 46.5685 60 30C60 13.4315 46.5685 0 30 0C13.4315 0 0 13.4315 0 30C0 46.5685 13.4315 60 30 60Z" fill="#5E4B9D"/>
<path d="M48.9387 20.0619C48.8875 19.4059 48.5439 18.9991 47.8833 18.941L40.3426 18.9555C39.3998 19.0717 39.0664 20.2985 39.8681 20.8548C39.9193 20.8901 40.1995 21.0313 40.2322 21.0313H45.5047C45.0896 21.5896 44.5599 22.0463 44.0813 22.5486C43.435 23.2295 42.7826 23.8709 42.1199 24.5165C41.7825 24.8465 41.1321 25.5523 41.0932 25.5876C40.3079 26.2788 39.498 26.3867 38.5408 26.6566C38.0091 26.806 37.5203 26.9306 36.9721 27.0551C35.8923 27.298 34.9167 27.4682 33.8327 27.653C33.2642 27.7484 32.6936 27.8668 32.1168 27.9519C31.4153 28.0557 30.7117 28.1553 30.0082 28.2508C29.3231 28.3421 28.6338 28.4065 27.9487 28.4999C24.5598 28.9586 19.6697 29.434 16.5875 30.831C14.5894 31.736 12.8898 34.119 11.2495 35.5679C10.4662 36.6016 11.7077 37.8221 12.6505 37.0873L15.3686 34.3701L15.5077 34.3286L24.026 42.9347C24.3634 42.5902 24.6436 42.3162 24.9586 41.9384L16.5241 33.2783C16.7061 33.2181 16.837 33.0375 16.9986 32.9379C17.3504 32.722 18.6205 32.2425 19.0131 32.1906C19.0684 32.1823 19.1195 32.1698 19.1706 32.2072L26.1366 39.2503C26.2757 38.7355 26.4148 38.229 26.5293 37.708L20.6943 31.7858C21.7374 31.5554 22.7866 31.3354 23.846 31.1963L27.1183 34.4739C27.2124 33.8927 27.2799 33.3136 27.3637 32.7324L25.5987 30.8911C26.2818 30.7832 26.9731 30.7292 27.6582 30.6421C28.3577 30.5528 29.0694 30.4843 29.7669 30.393C32.9574 29.9757 36.5426 29.5025 39.6125 28.5642C41.175 28.0868 41.8193 27.7547 43.0075 26.6358C44.3492 25.3738 45.5518 23.9539 46.8812 22.6773V27.7796C46.8812 27.8128 47.0202 28.0972 47.055 28.1491C47.6011 28.9565 48.8057 28.6161 48.9264 27.6654C48.8078 25.1994 49.1289 22.5009 48.9407 20.0619H48.9387Z" fill="white"/>
<path d="M28.6747 31.5616C28.6829 31.5616 28.687 31.5616 28.6747 31.5616V31.5616Z" fill="white"/>
<path d="M29.6196 31.4537C29.3455 31.4869 29.0715 31.5201 28.7954 31.5512C28.6072 31.572 28.6543 31.5658 28.6768 31.5616C28.6624 31.5616 28.6256 31.5679 28.5459 31.5782C28.5418 31.5782 28.4457 32.3732 28.4457 32.3732L28.372 32.8797C28.3413 33.0977 28.3127 33.3136 28.282 33.5315C28.233 33.8927 28.1839 34.2663 28.1225 34.64L27.8014 36.6182L27.646 37.3758L27.5253 37.9321C27.4067 38.4781 27.2615 39.0095 27.1224 39.5222L26.7379 40.9358C26.6827 41.1351 26.6111 41.3281 26.5211 41.5149C26.4025 41.7599 26.2552 41.9882 26.0814 42.1958L25.7398 42.6068C25.4515 42.9534 25.1938 43.215 24.9197 43.4931L24.7663 43.6488C24.3614 44.064 23.7008 44.066 23.2917 43.653C22.5473 44.3608 21.7783 45.0396 21.0584 45.7661C20.6023 46.2269 20.3425 46.8227 20.8395 47.3852C21.3999 48.0183 22.0421 47.6779 22.5554 47.2378C23.257 46.6358 24.0239 45.8761 24.6886 45.2222C26.2839 43.653 27.2369 42.8268 27.9241 40.5912C28.822 37.6706 29.2147 34.5051 29.6196 31.4495V31.4537Z" fill="white"/>
<path d="M29.8732 27.2233C29.9673 27.2108 30.0614 27.1963 30.1554 27.1838L30.3027 26.1107L31.2128 27.0344C31.4644 26.9991 31.718 26.9617 31.9675 26.9244C32.2906 26.8766 32.6117 26.8185 32.9492 26.7562L30.6054 24.3815L30.6013 24.1511L31.1351 21.1828L36.1029 26.1833C36.3156 26.1397 36.5283 26.0941 36.7492 26.0442C37.0846 25.9695 37.3955 25.8927 37.7084 25.8118L31.6014 19.5907C31.5585 19.5222 31.5769 19.4537 31.5871 19.381C31.6341 19.0302 31.9552 18.1605 32.1086 17.8159C32.2518 17.4962 32.4236 17.189 32.6915 16.9586L40.4183 24.7365C40.4347 24.7199 40.451 24.7012 40.4694 24.6846C40.7108 24.4729 40.9071 24.2757 41.1157 24.0681C41.2078 23.9768 41.3018 23.8813 41.4021 23.7858L33.6916 15.929L33.7591 15.8086C34.4688 15.0842 35.3114 14.4345 36.0191 13.7204C36.5406 13.1953 36.7922 12.4708 36.0927 11.9498C35.2787 11.3457 34.6017 12.1802 34.0311 12.6971C32.3847 14.1875 30.6463 15.6633 29.9121 17.8242C29.1103 20.1802 28.6645 23.0717 28.3025 25.5481C28.2105 26.1771 28.1225 26.8102 28.0509 27.4433C28.327 27.408 28.6011 27.3748 28.8772 27.3437C29.2106 27.3063 29.5439 27.2669 29.8753 27.2233H29.8732Z" fill="white"/>
</svg>
