<svg width="60" height="60" viewBox="0 0 60 60" fill="none" xmlns="http://www.w3.org/2000/svg">
<path d="M30 60C46.5685 60 60 46.5685 60 30C60 13.4315 46.5685 0 30 0C13.4315 0 0 13.4315 0 30C0 46.5685 13.4315 60 30 60Z" fill="#5E4B9D"/>
<path d="M38.3831 35.6583C40.7543 35.0496 42.5088 32.7667 44.8609 32.1483C47.2131 31.5299 49.1146 33.701 48.1218 35.9165C47.4994 37.3036 43.5703 39.7695 42.1346 40.4495C38.2838 42.2758 34.6125 42.4203 30.439 41.8925C27.6077 41.5341 24.6141 40.4418 21.8115 41.432C21.9833 42.3278 21.8 43.1293 21.086 43.7265C20.5571 44.1696 18.3215 45.4911 17.6743 45.7647C16.6414 46.2001 15.6506 45.8475 14.9957 44.9729C13.8521 42.4569 11.6947 39.8407 10.6371 37.3556C10.2915 36.5426 10.2781 35.8279 10.8032 35.0862C11.1583 34.5853 14.4993 32.5779 15.0931 32.4931C15.8663 32.3833 16.3226 32.6068 16.9774 32.9516C19.7114 30.767 23.4075 28.8771 26.9701 29.9174C29.3584 30.6148 31.4452 31.6821 33.9996 32.2465C36.2926 32.7532 38.6695 32.3544 38.385 35.6564L38.3831 35.6583ZM21.0459 40.1682C24.3545 38.8852 27.8483 40.1432 31.1989 40.5458C36.5732 41.1912 40.613 40.2915 44.9469 37.0396C45.8518 36.3615 47.5739 35.3154 46.7338 34.0073C46.0198 32.8938 44.6032 33.7318 43.7479 34.1981C42.6005 34.8242 41.6096 35.7913 40.466 36.3654C37.7054 37.7486 33.1921 37.9701 30.1507 37.6619C29.6448 37.6099 28.969 37.4866 29.0816 36.8046C29.242 35.8375 30.8037 36.3191 31.4681 36.3326C32.7625 36.3596 35.1146 36.4443 36.3097 36.1149C37.1708 35.878 37.2567 34.2539 36.3097 34.0459C34.6335 33.676 33.1348 33.5161 31.4242 33.0133C29.305 32.391 26.4393 30.8768 24.3259 31.0444C22.7393 31.1696 20.834 32.0635 19.4823 32.888C18.8828 33.2521 18.333 33.805 17.701 34.0247L21.044 40.1682H21.0459Z" fill="white"/>
<path d="M35.0478 26.049H37.0963C37.6175 26.049 38.0891 26.6963 37.7588 27.1972C37.7054 27.2781 37.4438 27.4919 37.3827 27.4919H35.0478V29.8461C35.0478 30.241 34.2917 30.5223 33.9099 30.2256C33.8526 30.1813 33.6197 29.7787 33.6197 29.7498V27.4919H31.2848C30.735 27.4919 30.6204 26.0509 31.5712 26.0509H33.6197V23.8894C33.6197 23.0552 35.0497 23.1689 35.0497 23.7931V26.0509L35.0478 26.049Z" fill="white"/>
<path d="M30.8552 14.7078H32.9038C33.8526 14.7078 33.74 16.1488 33.1902 16.1488H30.8552V18.4066C30.8552 19.2177 29.4253 19.104 29.4253 18.5029V16.1488H27.0903C26.5405 16.1488 26.4259 14.7078 27.3767 14.7078H29.4253V12.4499C29.4253 11.8257 30.8552 11.7121 30.8552 12.5462V14.7078Z" fill="white"/>
<path d="M40.6703 16.6786C40.7772 16.1757 41.5466 15.9927 41.8845 16.3665C41.9113 16.3954 42.1003 16.8442 42.1003 16.8712V19.0327H44.4352C44.6719 19.0327 45.0881 19.863 44.67 20.231C44.6223 20.2734 44.1775 20.4737 44.1488 20.4737H42.1003V22.6353C42.1003 22.6642 41.8635 23.0668 41.812 23.113C41.4416 23.4328 40.6722 23.0745 40.6722 22.8279V20.4737H38.5282C37.7378 20.4737 37.7225 19.0327 38.3373 19.0327H40.6722C40.7696 18.3546 40.5405 17.3047 40.6722 16.6786H40.6703Z" fill="white"/>
<path d="M19.824 23.8123C19.5682 23.5696 19.5663 22.8664 19.8641 22.6776C20.2937 22.4041 22.2391 22.7701 22.4262 22.4985C22.6553 21.7934 22.0234 19.7764 23.0944 19.707C24.2571 19.6299 23.6233 21.8242 23.8447 22.4985C24.5454 22.853 26.6741 22.0535 26.6512 23.3115C26.6321 24.3652 24.5492 23.7526 23.8925 23.9761C23.5507 24.6561 24.2877 26.7425 23.1765 26.8157C21.9031 26.9005 22.7699 24.2497 22.3785 23.9761C21.8707 23.8027 20.1428 24.1167 19.824 23.8123Z" fill="white"/>
</svg>
