<svg width="60" height="60" viewBox="0 0 60 60" fill="none" xmlns="http://www.w3.org/2000/svg">
<path d="M30 60C46.5685 60 60 46.5685 60 30C60 13.4315 46.5685 0 30 0C13.4315 0 0 13.4315 0 30C0 46.5685 13.4315 60 30 60Z" fill="#5E4B9D"/>
<path fill-rule="evenodd" clip-rule="evenodd" d="M29.6626 13.6614L30.1031 14.3135L30.1508 14.3839V16.1394L30.1031 16.2108L29.5812 16.982H29.2328V40.9736L29.2319 40.9827C29.0577 43.552 27.01 45.5421 24.5798 45.5422C22.1494 45.5422 20.1215 43.552 19.9472 41.0224V16.9865H19.5696L19.0478 16.2153L19 16.144V14.3839L19.0478 14.3135L19.4882 13.6614L19.5696 13.5422H29.5812L29.6626 13.6614ZM21.5197 40.9493C21.6343 42.5358 22.9042 43.8123 24.4348 43.8905H24.5834C26.1874 43.8905 27.5454 42.5832 27.6638 40.9059V35.4144H23.8219V33.3735H27.6638V30.3573H23.8219V28.3163H27.6638V25.2387H23.8219V23.1978H27.6638V16.9865H21.5197V40.9493ZM21.2632 41.1254C21.2662 41.1508 21.2703 41.176 21.2739 41.2012C21.2626 41.1214 21.2538 41.0406 21.2482 40.9592L21.2632 41.1254ZM20.569 15.3384H28.5827V15.1849H20.569V15.3384Z" fill="white"/>
<path fill-rule="evenodd" clip-rule="evenodd" d="M34.4014 18.9931C39.7044 18.9933 43.9999 23.5684 44 29.1706C44 34.7729 39.7044 39.3479 34.4014 39.3481C32.734 39.3481 31.1681 38.8937 29.8032 38.1019L29.6653 38.0215V36.07L30.088 36.3572C31.3393 37.2073 32.8153 37.7055 34.4014 37.7055C38.8163 37.7052 42.4265 33.8882 42.4266 29.1751C42.4265 24.4621 38.8163 20.645 34.4014 20.6448C32.8151 20.6448 31.3348 21.1424 30.088 21.9922L29.6653 22.2803V20.3278L29.8032 20.2484C31.0935 19.4999 32.5667 19.0525 34.1289 19.0058V18.9931H34.4014ZM42.6212 30.3573C42.6331 30.2634 42.6466 30.1694 42.6557 30.0746L42.6566 30.0601C42.6472 30.1598 42.6337 30.2586 42.6212 30.3573ZM36.3471 19.488L36.279 19.4717C36.2435 19.464 36.2076 19.4583 36.172 19.451C36.2305 19.463 36.2889 19.4748 36.3471 19.488Z" fill="white"/>
<path d="M38.4741 25.031L39.4629 25.9061L34.2837 32.4876L34.0856 32.7377L30.7089 29.0099L31.8348 27.8612L32.0267 28.0734L34.0025 30.2534L38.261 24.8432L38.4741 25.031Z" fill="white"/>
</svg>
