<svg width="60" height="60" viewBox="0 0 60 60" fill="none" xmlns="http://www.w3.org/2000/svg">
<path d="M30 0.317383C46.3932 0.317383 59.6826 13.6068 59.6826 30C59.6826 46.3932 46.3932 59.6826 30 59.6826C13.6068 59.6826 0.317383 46.3932 0.317383 30C0.317383 13.6068 13.6068 0.317383 30 0.317383Z" fill="#5E4B9D" stroke="#5E4B9D" stroke-width="0.634921"/>
<path d="M31.2441 24.5106C31.7886 24.7119 32.2998 25.1542 32.4967 25.7074C32.7983 25.5631 33.4588 25.8469 33.6811 25.7454C33.7446 25.7169 34.5987 24.8577 34.6765 24.7515C34.8908 24.4614 34.9639 24.0192 34.8257 23.6784C34.7225 23.4247 34.2161 23.1505 34.1113 22.8049C33.8779 22.0314 34.7781 21.2626 35.4719 21.7761C36.1657 22.2897 36.6737 23.1362 36.6626 23.9906C37.204 24.0208 37.8105 24.2284 38.2455 24.5581C38.8059 24.9845 39.4505 25.6804 38.7837 26.3399C37.6946 27.413 37.2754 25.197 36.0434 25.9182C35.9402 25.9784 34.9369 26.9597 34.9067 27.0342C34.8575 27.1531 35.0067 27.5398 35.0115 27.7269C35.0178 27.9504 34.894 28.2769 34.9511 28.4434C34.9845 28.5417 35.3242 28.7018 35.4401 28.8159C35.5671 28.9411 35.8005 29.3993 35.8831 29.4357C36.5404 29.4928 37.8009 29.6576 38.1454 28.9427C38.3868 28.4434 38.0264 27.3734 38.8853 27.2355C40.7126 26.9406 40.0728 29.5641 39.3171 30.3615C39.8823 30.9622 40.2094 32.0608 40.0268 32.8692C39.8442 33.6776 38.3931 33.7014 38.2598 32.7456C38.201 32.3207 38.3598 32.0782 38.0835 31.666C37.6406 31.0019 36.5626 31.2111 35.8688 31.2301C35.8466 31.5567 34.9988 32.102 34.9527 32.2335C34.8956 32.3984 35.0194 32.7265 35.0131 32.95C35.0083 33.1355 34.8591 33.5239 34.9083 33.6428C34.9369 33.7125 35.8577 34.6192 35.9704 34.7017C37.0373 35.4832 37.4151 34.0184 38.1518 34.0375C38.817 34.0549 39.3187 34.8808 38.9154 35.4625C38.4519 36.1299 37.4866 36.6831 36.6658 36.6863C36.6642 37.1967 36.4689 37.7896 36.1641 38.2017C35.737 38.7771 35.0559 39.4493 34.378 38.8041C33.4429 37.9148 34.7003 37.4329 34.848 36.9542C35.1401 36.0063 34.1875 35.4942 33.6382 34.9125L32.5602 34.9981C32.2109 35.4911 31.8569 35.9872 31.2472 36.1679C31.2615 36.8955 31.0043 37.8799 31.8728 38.2001C32.3887 38.3904 32.9158 38.0638 33.2905 38.5695C33.7001 39.1227 33.4429 39.9533 32.7205 40.0516C31.8537 40.1689 31.0154 39.8773 30.3423 39.3526C29.6628 39.8852 28.7832 40.1879 27.9085 40.0421C27.1924 39.9232 26.9829 39.0102 27.4592 38.5029C27.918 38.0147 28.6388 38.5536 29.2103 37.937C29.6072 37.509 29.4072 36.7069 29.4373 36.1695C28.8848 35.9856 28.3879 35.5212 28.1847 34.9727C27.8577 35.1233 27.2591 34.8174 27.0003 34.9363C26.8019 35.0282 25.8525 36.0839 25.8112 36.328C25.6715 37.1397 26.0494 37.1 26.4034 37.5803C27.0496 38.4601 25.9874 39.4778 25.2111 38.9024C24.5379 38.403 24.0093 37.5423 24.0204 36.6879C23.5203 36.6736 22.909 36.4771 22.5026 36.187C22.3819 36.1014 21.7675 35.4958 21.712 35.3896C21.4103 34.8047 21.9104 34.0565 22.5344 34.0406C23.2535 34.0216 23.5854 35.3785 24.6411 34.7619C24.7443 34.7017 25.7477 33.7204 25.7779 33.6459C25.8271 33.527 25.6778 33.1403 25.6731 32.9532C25.6667 32.7297 25.7906 32.4016 25.7334 32.2367C25.7001 32.14 25.3619 31.9641 25.254 31.8547C25.1412 31.739 24.8332 31.2317 24.7729 31.2111C24.0426 31.227 22.8487 30.9828 22.5058 31.8357C22.3153 32.308 22.636 33.3099 21.8009 33.4446C19.9719 33.7395 20.6165 31.1255 21.369 30.3187C20.5006 29.6022 20.0767 26.7013 21.9072 27.2656C22.7995 27.5398 22.0597 28.8112 22.8995 29.3152C23.2281 29.5118 24.268 29.534 24.6554 29.4864C24.9301 29.4531 25.0349 29.0252 25.246 28.8191C25.3635 28.7049 25.7017 28.5448 25.735 28.4466C25.7922 28.2801 25.6683 27.9552 25.6747 27.7301C25.6794 27.5446 25.8287 27.1562 25.7795 27.0373C25.7509 26.9676 24.8221 26.0498 24.7189 25.9784C24.476 25.8088 24.2315 25.7502 23.9394 25.7961C23.2583 25.9039 22.8503 27.1863 21.9358 26.3763C20.8801 25.4411 22.6963 24.2348 23.5552 24.0255C23.7108 23.9875 23.8648 23.989 24.022 23.9954C24.0251 23.4739 24.2109 22.8937 24.5236 22.48C24.9856 21.8713 25.8049 21.1231 26.4399 22.0092C27.075 22.8953 25.997 23.2123 25.8382 23.7259C25.5445 24.6723 26.5018 25.1859 27.0496 25.7692L28.1831 25.701C28.399 25.1542 28.8896 24.7135 29.4405 24.5122C29.4103 23.8004 29.6929 22.9032 28.8991 22.5291C28.2958 22.2438 27.3147 22.6892 27.2036 21.6414C27.0305 20.0071 29.631 20.6206 30.3439 21.3291C31.0265 20.7886 31.9648 20.4811 32.8444 20.6396C33.6953 20.7933 33.6953 22.239 32.8444 22.3928C32.3395 22.4847 31.9617 22.2723 31.5092 22.713C31.0567 23.1537 31.279 23.9526 31.2488 24.5137L31.2441 24.5106ZM32.6904 21.4147H31.7299C31.6775 21.4147 31.1837 21.6604 31.1043 21.7159C30.7741 21.9473 30.6138 22.4562 30.1073 22.239C29.9898 22.1883 29.7533 21.8507 29.6104 21.7444C29.1198 21.3814 28.5753 21.3925 27.9878 21.4147C27.9354 21.8332 28.5451 21.6414 28.8658 21.6937C29.5389 21.8063 30.2391 22.6258 30.2391 23.2979V24.3219H30.4375V23.1648C30.4375 23.1061 30.6027 22.6702 30.6487 22.5814C31.0234 21.8522 31.7997 21.5954 32.5792 21.6668L32.6602 21.6145L32.6888 21.4131L32.6904 21.4147ZM25.7048 22.3421C25.1508 22.816 24.865 23.2361 24.7523 23.9684C24.7189 24.1809 24.8047 24.4583 24.6824 24.6263C24.5046 24.8736 24.2776 24.7071 24.0696 24.7357C23.3107 24.8387 22.8551 25.1003 22.3613 25.6788L22.5248 25.8421C23.3091 24.891 24.5109 24.7008 25.4413 25.5758C25.627 25.7502 25.9208 26.2321 26.1319 26.3399C26.2478 26.4001 26.2589 26.351 26.3319 26.2717C26.3859 26.0609 25.4683 25.338 25.3095 25.1114C24.6776 24.2078 25.0555 23.1346 25.8668 22.5053L25.7033 22.3421H25.7048ZM34.975 22.3421L34.8114 22.5053C35.6164 23.1331 35.9974 24.2126 35.3687 25.1114C35.2099 25.3364 34.2923 26.0609 34.3463 26.2717C34.4193 26.351 34.4288 26.4001 34.5463 26.3399C34.7463 26.2368 35.0448 25.7581 35.2385 25.5774C36.1784 24.7008 37.3612 24.8878 38.1534 25.8421L38.3169 25.6788C37.8232 25.1003 37.3675 24.8387 36.6086 24.7357C36.4007 24.7071 36.1736 24.8736 35.9958 24.6263C35.8751 24.4583 35.9593 24.1809 35.9259 23.9684C35.8132 23.2377 35.5275 22.816 34.9734 22.3421H34.975ZM31.7537 26.0308C31.8013 25.8564 31.6664 25.728 31.5663 25.6107C30.7249 24.6215 28.8769 25.1098 28.7166 26.4033C28.6658 26.8138 29.0007 27.719 28.4213 27.7316C27.8926 27.7443 27.9132 26.8059 27.9243 26.4381C26.9495 26.3906 26.2732 27.2038 26.4955 28.1612C27.1226 28.2548 27.5163 28.2991 28.0498 28.659C28.1418 28.7208 28.2847 28.9221 28.3514 28.9285C28.5149 28.9459 29.2389 28.5639 29.3135 29.0521C29.4103 29.6925 28.8499 29.4341 28.5245 29.7147C28.2577 29.943 28.3149 30.9337 27.7259 30.5009C27.1369 30.0682 28.1704 29.5704 27.3623 29.1456C26.1494 28.51 24.8348 29.916 25.6175 31.0859C25.8906 31.4949 26.5447 31.655 26.6177 31.8055C26.7701 32.1162 26.5161 32.3271 26.4732 32.6219C26.3335 33.592 26.967 34.2467 27.9243 34.2356L27.9577 33.1767C27.3893 32.9072 26.9321 32.3318 27.194 31.6898C28.0132 31.2587 27.7005 32.3413 28.299 32.5078C28.4784 32.5236 28.9023 31.7627 29.4072 31.7929C29.6025 31.804 29.6914 31.9022 29.7072 32.0925C29.7422 32.5173 29.5056 32.446 29.2468 32.6806C28.307 33.5366 28.6181 35.2168 29.8946 35.537C30.6535 35.7273 31.66 35.3262 31.8934 34.5273C31.9315 34.3941 31.8632 34.448 31.7997 34.4306C31.3965 34.3133 31.1805 34.3196 30.8678 33.9709C30.5947 33.6665 30.4804 33.0816 31.0027 33.107C31.3282 33.1228 31.4441 33.6745 31.8616 33.7046C32.0649 33.5698 31.8315 33.386 31.8346 33.21C31.8378 32.9088 32.1585 32.763 32.4237 32.8819C32.7444 33.0261 32.7729 33.9297 32.7555 34.2356C33.7382 34.2863 34.4622 33.4319 34.151 32.4792C33.7366 32.4412 33.3334 32.4047 32.9555 32.2193C32.7967 32.1416 32.3665 31.7453 32.3268 31.7421C32.1665 31.7295 31.3457 32.2304 31.3615 31.4949C31.3727 30.9828 31.8839 31.2301 32.1935 30.9321C32.4586 30.6769 32.2617 30.1015 32.7888 30.1316C33.3651 30.1649 33.0603 30.9004 32.9634 31.2143C34.3002 32.7139 36.2863 30.3583 34.7384 29.2502C34.3177 28.9491 33.924 29.1187 33.5985 28.8016C33.427 28.3182 33.8081 28.2516 34.1843 28.1612C34.6178 25.9753 31.3012 25.8421 31.5695 28.0519C31.5965 28.2722 31.8759 28.7493 31.5044 28.854C30.998 28.9966 30.9313 28.6257 30.836 28.2231C30.3772 28.3927 29.2929 28.2722 29.3945 27.6096C29.4739 27.0912 30.12 27.5541 30.3407 27.5525C30.9329 27.5525 30.9107 26.9089 31.2075 26.5095C31.3393 26.3319 31.5552 26.1227 31.7553 26.0308H31.7537ZM23.0567 30.4692C23.525 30.4027 24.1283 30.5184 24.6126 30.4692V30.2045H23.0567C22.9646 30.2045 22.509 29.9969 22.4058 29.9287C21.7786 29.5213 21.5707 28.6637 21.6326 27.9567C21.1452 27.8822 21.4468 28.9934 21.5548 29.2582C21.7056 29.6307 22.2899 30.0729 22.3026 30.3028C22.32 30.6135 21.9803 30.772 21.8041 31.0019C21.4516 31.4631 21.3103 32.0782 21.3992 32.6504L21.6326 32.7154C21.4897 31.7818 22.0501 30.6103 23.0567 30.4692ZM37.6231 30.2061C37.1643 30.2774 36.5467 30.1538 36.0672 30.2061V30.4708H37.6231C37.6517 30.4708 38.074 30.6452 38.1407 30.6801C38.871 31.0684 39.0964 31.9466 39.0472 32.717C39.5314 32.801 39.2203 31.6819 39.1139 31.4267C38.9551 31.0462 38.3614 30.585 38.3772 30.3044C38.3899 30.0745 38.9726 29.6323 39.125 29.2598C39.206 29.06 39.4251 28.1168 39.2488 27.9884L39.0472 27.9599C39.0996 28.7271 38.8932 29.5673 38.182 29.9715C38.0804 30.0286 37.7152 30.1934 37.6231 30.2077V30.2061ZM26.17 34.3038C25.7683 34.6319 25.5207 35.1186 25.0714 35.388C24.3204 35.8382 23.6568 35.759 22.9646 35.2565C22.8773 35.1931 22.4264 34.6272 22.3629 34.9331C22.3454 35.0187 22.7106 35.3595 22.7947 35.4261C23.1932 35.7431 23.6219 35.889 24.1252 35.9492C24.2268 35.9619 24.3284 35.8874 24.4347 35.9016C24.8634 35.9587 24.711 36.4247 24.7539 36.7085C24.8666 37.4408 25.1523 37.8593 25.7064 38.3349C25.9747 38.1145 25.6016 37.9386 25.4762 37.7721C24.9618 37.0921 24.7904 36.3122 25.3127 35.564C25.4746 35.331 26.3907 34.6145 26.3351 34.4036L26.17 34.3038ZM38.2518 34.8316C38.1724 34.7635 37.439 35.5656 37.2183 35.5497C36.5277 35.8398 35.7974 35.6258 35.2703 35.1297C35.0416 34.9141 34.8432 34.5511 34.5781 34.3672C34.4892 34.3054 34.4764 34.2467 34.378 34.3672C34.297 34.4496 34.3606 34.5273 34.4082 34.6018C34.5987 34.9077 35.1655 35.2549 35.3941 35.6005C35.9958 36.5167 35.591 37.5328 34.8099 38.1669L34.9416 38.3C35.0131 38.3301 35.3766 37.9481 35.4386 37.8704C35.7307 37.509 35.8386 37.2173 35.9164 36.7608C35.9672 36.458 35.8164 35.9571 36.2467 35.8985C36.353 35.8842 36.4546 35.9571 36.5562 35.946C36.9198 35.9016 37.2024 35.8271 37.5247 35.6575C37.6835 35.5735 38.4868 35.0314 38.2518 34.8301V34.8316ZM30.2407 36.3518V37.4424C30.2407 37.7991 29.8073 38.4839 29.5088 38.6931C28.9944 39.0545 28.5784 38.9483 28.0196 39.0577L27.991 39.259C28.5181 39.2717 28.9769 39.3002 29.45 39.0308C29.8485 38.8025 30.0613 38.216 30.5725 38.4363C30.6916 38.4871 30.9249 38.8247 31.071 38.9293C31.5489 39.2765 32.1236 39.2876 32.692 39.259C32.7444 38.8405 32.1347 39.0324 31.814 38.98C31.1901 38.8754 30.4407 38.0686 30.4407 37.4424V36.3518H30.2407Z" fill="white"/>
<path d="M29.169 46.1038C29.4802 46.4478 29.1293 46.8821 28.6753 46.8821C24.9094 46.8742 20.1164 43.9829 17.735 41.1803C15.8679 38.9816 13.7786 34.8871 13.804 31.9593C13.8072 31.5519 14.1644 31.3046 14.5264 31.4853C14.7852 31.6137 14.8836 33.1212 14.9598 33.5049C16.1124 39.3272 20.8165 44.2507 26.6193 45.6029C27.0654 45.7075 28.9992 45.9168 29.169 46.1038Z" fill="white"/>
<path d="M13.9088 29.1329C13.6707 28.8967 14.0041 27.1737 14.0882 26.7774C15.2694 21.1342 19.5846 16.4135 25.0269 14.5906C26.0763 14.2386 27.5798 13.8281 28.6785 13.798C29.3373 13.7789 29.4929 14.4685 28.8769 14.7158C21.8771 15.3197 16.0584 20.7299 14.855 27.6207C14.7391 28.2801 14.955 29.6164 13.9104 29.1329H13.9088Z" fill="white"/>
<path d="M46.7694 29.1329C46.5995 29.3026 46.182 29.274 46.0391 29.0679C45.9073 28.8793 45.6184 26.7377 45.4803 26.2241C44.0038 20.7585 39.4378 16.2613 33.87 15.0249C33.4508 14.9314 31.6727 14.7443 31.5108 14.5715C31.2075 14.2513 31.5362 13.7853 32.0013 13.798C33.1016 13.8281 34.6035 14.2386 35.6529 14.5906C41.1715 16.4373 45.4183 21.234 46.5932 26.9327C46.671 27.31 46.9917 28.911 46.7694 29.1314V29.1329Z" fill="white"/>
<path d="M31.5108 46.1038C31.6949 45.8993 32.9555 45.8185 33.327 45.7424C39.6029 44.4489 44.4372 39.733 45.7343 33.4399C45.8121 33.0594 45.8835 31.6185 46.1534 31.4838C46.5154 31.303 46.8726 31.5503 46.8758 31.9577C46.8821 32.7107 46.544 34.0755 46.3344 34.8285C44.7404 40.5399 39.9363 45.2177 34.1208 46.5318C33.6715 46.6333 31.9871 46.963 31.6679 46.814C31.4139 46.6951 31.3266 46.3083 31.5124 46.1022L31.5108 46.1038Z" fill="white"/>
<path d="M44.8674 29.1329C43.8561 29.6608 43.972 28.0725 43.8164 27.4099C42.5702 22.0837 38.6138 18.0462 33.2492 16.832C32.8714 16.7464 31.7584 16.6719 31.5457 16.4959C31.2091 16.2185 31.46 15.7049 31.9236 15.6986C32.5808 15.6891 33.9001 16.0346 34.5622 16.2344C39.7108 17.7847 43.7244 22.1249 44.7706 27.4083C44.8357 27.738 45.0786 28.9221 44.8674 29.1329Z" fill="white"/>
<path d="M31.5108 44.2048C31.6918 44.0035 32.1411 44.0526 32.3792 44.005C38.028 42.8843 42.5051 39.1576 43.8006 33.4097C43.8847 33.0388 44.0149 31.6011 44.2499 31.4853C44.4499 31.3855 44.7087 31.4283 44.8532 31.5979C45.077 31.861 44.842 32.8961 44.7706 33.2687C43.7164 38.6709 39.3663 43.2743 34.0129 44.6058C33.5842 44.712 31.9759 45.0608 31.6679 44.9181C31.4139 44.7992 31.325 44.4109 31.5124 44.2048H31.5108Z" fill="white"/>
<path d="M16.0092 31.4616C16.1299 31.4267 16.2521 31.4299 16.3728 31.4616L16.5665 31.6645C17.2952 37.9116 21.6802 42.6545 27.8291 43.9226C28.2117 44.0019 29.1405 43.9654 29.2595 44.3998C29.4929 45.2589 27.8116 44.8642 27.3639 44.7818C21.6262 43.7165 16.6856 38.5584 15.8171 32.8074C15.76 32.4269 15.5345 31.6026 16.0092 31.4616Z" fill="white"/>
<path d="M29.169 16.4722C29.0023 16.6576 27.7846 16.7527 27.4306 16.832C21.5786 18.1302 17.1714 23.0427 16.5712 29.0172C16.1394 29.4325 15.6901 29.2788 15.7076 28.6368C15.8092 25.0939 18.5891 20.7775 21.3484 18.674C23.0757 17.3583 26.5701 15.6701 28.7547 15.6986C29.169 15.7033 29.4373 16.1726 29.1674 16.4722H29.169Z" fill="white"/>
<path d="M13.2341 29.8796C13.6945 29.7781 16.9062 29.7844 17.4143 29.8669C18.0414 29.9683 18.0446 30.7324 17.3412 30.8132C16.6078 30.8972 13.9929 30.9194 13.3007 30.8069C12.707 30.7102 12.6943 29.9969 13.2341 29.8796Z" fill="white"/>
<path d="M43.1989 29.8796C43.6593 29.7781 46.871 29.7844 47.3791 29.8669C48.0062 29.9683 48.0093 30.7324 47.306 30.8132C46.6027 30.8941 43.9577 30.9194 43.2655 30.8069C42.6718 30.7102 42.6591 29.9969 43.1989 29.8796Z" fill="white"/>
<path d="M30.6773 12.9499C30.7646 13.0371 30.7678 13.24 30.7789 13.362C30.8551 14.2497 30.898 16.6449 30.7709 17.474C30.69 18.0034 29.9755 18.0336 29.9025 17.4011C29.8057 16.5673 29.7961 14.0246 29.912 13.2099C29.9231 13.1306 29.9422 13.0529 29.9771 12.9816C30.0835 12.8136 30.5423 12.8136 30.6773 12.9483V12.9499Z" fill="white"/>
<path d="M30.6773 42.9366C30.7646 43.0238 30.7678 43.2267 30.7789 43.3504C30.863 44.3474 30.8805 46.4113 30.7757 47.391C30.7106 48.0044 29.9692 48.0044 29.9041 47.391C29.8073 46.4843 29.7993 44.1715 29.9041 43.2743C29.9565 42.8177 30.3994 42.6592 30.6789 42.9382L30.6773 42.9366Z" fill="white"/>
</svg>
