<svg width="60" height="60" viewBox="0 0 60 60" fill="none" xmlns="http://www.w3.org/2000/svg">
<path d="M30 60.0002C46.5685 60.0002 60 46.5688 60 30.0002C60 13.4317 46.5685 0.000244141 30 0.000244141C13.4315 0.000244141 0 13.4317 0 30.0002C0 46.5688 13.4315 60.0002 30 60.0002Z" fill="#5E4B9D"/>
<path fill-rule="evenodd" clip-rule="evenodd" d="M33.7411 14.2673C33.9706 14.1423 34.2219 14.1093 34.4559 14.1824C34.689 14.2552 34.8789 14.425 35.0048 14.656C35.1305 14.887 35.1696 15.1387 35.1044 15.3738C35.0387 15.6098 34.8748 15.8035 34.6454 15.9285C33.9184 16.3245 33.2453 16.8172 32.6679 17.3806L41.6864 24.9363C42.1 24.2061 42.4722 23.4393 42.6962 22.6326C42.8386 22.124 43.3364 21.8513 43.8407 22.0086C44.3159 22.1569 44.6181 22.6438 44.4999 23.075L44.4989 23.0798C43.5652 26.2562 41.484 28.7677 38.8202 30.2185C38.6871 30.291 38.5314 30.354 38.3934 30.4099C38.2486 30.4686 38.1207 30.5207 38.0175 30.5769L37.9003 30.6414L37.8895 30.6472L37.8788 30.6511C35.9663 31.4646 33.7834 31.7826 31.5819 31.4695C33.6356 37.0606 31.4518 43.3462 26.2518 46.1785C26.0224 46.3034 25.7709 46.3365 25.537 46.2634C25.304 46.1907 25.114 46.0208 24.9882 45.7898C24.8625 45.5589 24.8225 45.3071 24.8876 45.072C24.9531 44.8361 25.1174 44.6433 25.3466 44.5183C25.7133 44.3186 26.0584 44.077 26.41 43.825L17.7723 36.6218C17.6493 36.9059 17.5424 37.1856 17.4481 37.4763L17.328 37.8757C17.1854 38.3841 16.6878 38.6563 16.1835 38.4988C15.686 38.3419 15.4115 37.8405 15.5507 37.3377C16.4232 34.194 18.4129 31.6501 21.1972 30.1336C23.4261 28.9196 25.9422 28.4889 28.4315 28.8748C27.6552 26.7458 27.4966 24.5048 27.8905 22.3923L27.8925 22.3816L27.8954 22.3718L27.9169 22.2947C28.2846 20.2325 29.2205 18.3479 30.5722 16.8035L30.6015 16.7693L30.6405 16.7478L30.6649 16.7341C31.537 15.7856 32.5403 14.9214 33.7411 14.2673ZM21.328 32.3211C20.2512 33.0749 19.2872 34.0157 18.5653 35.074L27.7645 42.7371C28.6686 41.7858 29.3802 40.6186 29.7723 39.3084L21.328 32.3211ZM29.3358 31.0974C27.227 30.554 25.1064 30.6774 23.1796 31.4168L30.3319 37.3191C30.6203 35.3085 30.3342 33.1085 29.3358 31.0974ZM29.4872 24.4666C29.4149 26.1542 29.7941 27.8934 30.6005 29.534C32.319 29.9625 34.035 29.9599 35.6278 29.5925L29.4872 24.4666ZM31.4208 18.741C30.667 19.8151 30.1149 21.0292 29.7831 22.3162L37.6259 28.7966C38.7523 28.2326 39.806 27.4502 40.6132 26.4285L31.4208 18.741Z" fill="white"/>
</svg>
