<svg width="60" height="60" viewBox="0 0 60 60" fill="none" xmlns="http://www.w3.org/2000/svg">
<path d="M30 60C46.5685 60 60 46.5685 60 30C60 13.4315 46.5685 0 30 0C13.4315 0 0 13.4315 0 30C0 46.5685 13.4315 60 30 60Z" fill="#5E4B9D"/>
<path d="M14.2733 21.4351C14.6145 21.0676 15.1667 21.0834 15.4755 21.4742C16.1889 22.3779 16.8154 23.4788 17.455 24.6109C18.0855 25.7269 18.7309 26.8756 19.4725 27.8453C19.5442 27.9555 19.5407 28.182 19.3846 28.4459C19.3131 28.5666 19.2217 28.6706 19.1307 28.7408C19.0367 28.8132 18.964 28.8344 18.9247 28.8346H15.9413L15.9218 29.1139C15.1048 40.8763 27.8406 48.879 37.9608 42.6256H37.9657L38.038 42.5797C38.3017 42.4148 38.5948 42.1739 38.8768 41.9478C39.1679 41.7146 39.4582 41.4882 39.745 41.3219C40.0344 41.1541 40.2892 41.0663 40.5087 41.0719C40.7096 41.0772 40.9216 41.1622 41.1395 41.4312C41.381 41.7295 41.4274 41.9903 41.3817 42.2242C41.3323 42.4753 41.1685 42.7398 40.911 43.0094C40.3919 43.5525 39.6035 44.0091 39.0614 44.3433C32.0256 48.6786 23.166 47.2762 17.7772 41.0396C14.9835 37.8064 13.631 33.4322 13.7723 29.1441L13.7831 28.8346H10.7684C10.6477 28.8342 10.4511 28.7141 10.3055 28.4576C10.1623 28.2046 10.1521 27.9636 10.2284 27.8326L10.2274 27.8316L14.2733 21.4351Z" fill="white"/>
<path d="M24.1278 41.026L23.9833 41.0182C23.9805 41.0179 23.9773 41.0166 23.9745 41.0162C24.0247 41.0217 24.0761 41.026 24.1278 41.026Z" fill="white"/>
<path d="M36.7001 38.4693C37.3146 38.4698 37.8159 38.9716 37.8163 39.5973C37.816 40.223 37.3147 40.7256 36.7001 40.7262H24.1278C23.5129 40.726 23.0119 40.2232 23.0116 39.5973C23.012 38.9714 23.513 38.4695 24.1278 38.4693H36.7001Z" fill="white"/>
<path d="M16.8055 40.3014C16.8002 40.2941 16.7943 40.2871 16.7889 40.2799C16.6983 40.1564 16.6094 40.0308 16.5223 39.9049C16.6146 40.0385 16.709 40.1707 16.8055 40.3014Z" fill="white"/>
<path d="M23.4325 14.981C32.0449 11.0424 42.0511 14.9764 45.6815 23.7096C46.6572 26.0572 47.0041 28.6046 46.9901 31.1646L46.9882 31.4664H49.9598L49.9618 31.4683H50.0868C50.0924 31.47 50.1384 31.4813 50.2177 31.5494C50.2981 31.6188 50.3829 31.7223 50.4511 31.8404C50.5196 31.9594 50.5628 32.0796 50.5761 32.1783C50.5892 32.2777 50.5698 32.3276 50.5536 32.3492L50.5458 32.359L50.5399 32.3697L46.3378 39.0201C46.1146 39.1767 45.9379 39.2142 45.7987 39.193C45.6481 39.1696 45.4739 39.0682 45.288 38.8297C44.5735 37.9127 43.9462 36.8147 43.3065 35.6881C42.675 34.5758 42.0306 33.434 41.2899 32.4566C41.2182 32.3464 41.2226 32.1211 41.3788 31.857C41.4505 31.736 41.5415 31.6314 41.6327 31.5611C41.7265 31.489 41.7986 31.4685 41.8378 31.4683H44.8241L44.8417 31.1861C45.5532 19.3403 32.8894 11.3683 22.6708 17.7584L22.4413 17.9146C22.1883 18.0978 21.8714 18.3523 21.5829 18.5767C21.3845 18.7311 21.1947 18.876 21.0321 18.9879C20.8584 19.1074 20.7493 19.165 20.704 19.1783C19.7901 19.446 19.0377 18.5106 19.5389 17.6324L19.5399 17.6314C19.6258 17.481 19.8385 17.2614 20.1639 16.9976C20.4803 16.7413 20.8739 16.4653 21.286 16.1988C22.1124 15.6646 22.9911 15.1825 23.4325 14.981Z" fill="white"/>
<path d="M27.6083 26.0621L27.619 26.1012C27.689 26.3507 28.0993 27.381 30.2489 28.8238L30.4159 28.9361L30.5829 28.8238C32.7329 27.3806 33.1419 26.3504 33.2118 26.1012L33.2235 26.0621V23.8599H35.4569V26.0777C35.4632 26.5191 35.2842 28.0523 32.747 30.0348L32.4335 30.2789L32.7548 30.5133C34.673 31.9145 35.3477 32.8596 35.4247 34.1588C35.4764 35.0559 35.4478 36.273 35.4315 36.8346L33.2069 36.7476C33.2188 36.3087 33.2384 35.4475 33.2177 34.7154L33.2001 34.2916C33.1822 33.9782 32.9906 33.6681 32.6093 33.2935C32.2212 32.9126 31.5881 32.4181 30.5888 31.7389L30.4198 31.6236L30.2509 31.7389C29.251 32.4184 28.6175 32.9125 28.2294 33.2935C27.8484 33.6677 27.6577 33.9775 27.6395 34.2906C27.5925 35.0813 27.616 36.2198 27.6307 36.7476L25.3964 36.8346C25.3961 36.8253 25.3957 36.8149 25.3954 36.8053C25.3899 36.6145 25.3838 36.3536 25.3798 36.0592C25.3717 35.4681 25.3734 34.7434 25.4071 34.1588L25.4276 33.9195C25.5706 32.7401 26.2775 31.8277 28.077 30.5133L28.3983 30.2789L28.0848 30.0348C25.546 28.0526 25.3686 26.5173 25.3749 26.0777V23.8599H27.6083V26.0621Z" fill="white"/>
<path d="M27.9647 34.1734C27.9668 34.1663 27.9682 34.1583 27.9706 34.151L28.0048 34.064C27.987 34.1019 27.9748 34.1388 27.9647 34.1734Z" fill="white"/>
<path d="M36.7001 19.9303C37.3148 19.9308 37.8162 20.4323 37.8163 21.0582C37.816 21.6839 37.3147 22.1856 36.7001 22.1861H24.1278C23.5129 22.186 23.0119 21.6841 23.0116 21.0582C23.0117 20.4321 23.5128 19.9304 24.1278 19.9303H36.7001Z" fill="white"/>
<path d="M22.7528 21.3951C22.749 21.379 22.7435 21.3626 22.7401 21.3463L22.7372 21.3297C22.7414 21.3516 22.7477 21.3736 22.7528 21.3951Z" fill="white"/>
<path d="M36.9852 19.6588C37.0141 19.6647 37.043 19.6726 37.0712 19.6803C37.0405 19.6719 37.0089 19.6641 36.9774 19.6578L36.9852 19.6588Z" fill="white"/>
<path d="M25.6854 13.8248C25.7254 13.8131 25.7655 13.8009 25.8055 13.7896C25.9456 13.75 26.0851 13.7122 26.2255 13.6764C26.0452 13.7224 25.8651 13.7724 25.6854 13.8248Z" fill="white"/>
</svg>
